<svg width="84" height="42" viewBox="0 0 84 42" fill="none" xmlns="http://www.w3.org/2000/svg">
    <rect y="15.8906" width="66" height="26" rx="13" fill="#FF218B" />
    <path
        d="M15.58 24.4186V30.3946C15.58 31.2106 15.352 31.8466 14.896 32.3026C14.448 32.7506 13.824 32.9746 13.024 32.9746C12.16 32.9746 11.476 32.7266 10.972 32.2306C10.468 31.7346 10.216 31.0266 10.216 30.1066H11.884C11.884 30.5386 11.972 30.8706 12.148 31.1026C12.332 31.3346 12.6 31.4506 12.952 31.4506C13.272 31.4506 13.508 31.3586 13.66 31.1746C13.812 30.9826 13.888 30.7226 13.888 30.3946V24.4186H15.58ZM23.313 29.3146C23.313 29.4826 23.293 29.6746 23.253 29.8906H18.381C18.405 30.4826 18.565 30.9186 18.861 31.1986C19.157 31.4786 19.525 31.6186 19.965 31.6186C20.357 31.6186 20.681 31.5226 20.937 31.3306C21.201 31.1386 21.369 30.8786 21.441 30.5506H23.229C23.141 31.0146 22.953 31.4306 22.665 31.7986C22.377 32.1666 22.005 32.4546 21.549 32.6626C21.101 32.8706 20.601 32.9746 20.049 32.9746C19.401 32.9746 18.825 32.8386 18.321 32.5666C17.817 32.2866 17.425 31.8906 17.145 31.3786C16.865 30.8666 16.725 30.2626 16.725 29.5666C16.725 28.8706 16.865 28.2666 17.145 27.7546C17.425 27.2346 17.817 26.8386 18.321 26.5666C18.825 26.2946 19.401 26.1586 20.049 26.1586C20.705 26.1586 21.277 26.2946 21.765 26.5666C22.261 26.8386 22.641 27.2146 22.905 27.6946C23.177 28.1666 23.313 28.7066 23.313 29.3146ZM21.609 29.1466C21.633 28.6026 21.489 28.1906 21.177 27.9106C20.873 27.6306 20.497 27.4906 20.049 27.4906C19.593 27.4906 19.209 27.6306 18.897 27.9106C18.585 28.1906 18.413 28.6026 18.381 29.1466H21.609ZM26.8061 26.1586C27.6141 26.1586 28.2621 26.3626 28.7501 26.7706C29.2381 27.1786 29.5421 27.7226 29.6621 28.4026H28.0781C28.0141 28.0826 27.8701 27.8266 27.6461 27.6346C27.4221 27.4426 27.1301 27.3466 26.7701 27.3466C26.4821 27.3466 26.2581 27.4146 26.0981 27.5506C25.9381 27.6866 25.8581 27.8706 25.8581 28.1026C25.8581 28.2866 25.9221 28.4346 26.0501 28.5466C26.1781 28.6586 26.3381 28.7466 26.5301 28.8106C26.7221 28.8746 26.9981 28.9506 27.3581 29.0386C27.8621 29.1506 28.2701 29.2706 28.5821 29.3986C28.9021 29.5186 29.1741 29.7146 29.3981 29.9866C29.6301 30.2506 29.7461 30.6106 29.7461 31.0666C29.7461 31.6346 29.5221 32.0946 29.0741 32.4466C28.6341 32.7986 28.0381 32.9746 27.2861 32.9746C26.4221 32.9746 25.7301 32.7826 25.2101 32.3986C24.6901 32.0066 24.3741 31.4506 24.2621 30.7306H25.8821C25.9221 31.0586 26.0661 31.3186 26.3141 31.5106C26.5621 31.6946 26.8861 31.7866 27.2861 31.7866C27.5741 31.7866 27.7941 31.7186 27.9461 31.5826C28.0981 31.4386 28.1741 31.2546 28.1741 31.0306C28.1741 30.8386 28.1061 30.6826 27.9701 30.5626C27.8421 30.4426 27.6781 30.3506 27.4781 30.2866C27.2861 30.2226 27.0101 30.1466 26.6501 30.0586C26.1541 29.9466 25.7501 29.8346 25.4381 29.7226C25.1341 29.6026 24.8701 29.4146 24.6461 29.1586C24.4301 28.9026 24.3221 28.5506 24.3221 28.1026C24.3221 27.5266 24.5421 27.0586 24.9821 26.6986C25.4221 26.3386 26.0301 26.1586 26.8061 26.1586ZM33.2983 26.1586C34.1063 26.1586 34.7543 26.3626 35.2423 26.7706C35.7303 27.1786 36.0343 27.7226 36.1543 28.4026H34.5703C34.5063 28.0826 34.3623 27.8266 34.1383 27.6346C33.9143 27.4426 33.6223 27.3466 33.2623 27.3466C32.9743 27.3466 32.7503 27.4146 32.5903 27.5506C32.4303 27.6866 32.3503 27.8706 32.3503 28.1026C32.3503 28.2866 32.4143 28.4346 32.5423 28.5466C32.6703 28.6586 32.8303 28.7466 33.0223 28.8106C33.2143 28.8746 33.4903 28.9506 33.8503 29.0386C34.3543 29.1506 34.7623 29.2706 35.0743 29.3986C35.3943 29.5186 35.6663 29.7146 35.8903 29.9866C36.1223 30.2506 36.2383 30.6106 36.2383 31.0666C36.2383 31.6346 36.0143 32.0946 35.5663 32.4466C35.1263 32.7986 34.5303 32.9746 33.7783 32.9746C32.9143 32.9746 32.2223 32.7826 31.7023 32.3986C31.1823 32.0066 30.8663 31.4506 30.7543 30.7306H32.3743C32.4143 31.0586 32.5583 31.3186 32.8063 31.5106C33.0543 31.6946 33.3783 31.7866 33.7783 31.7866C34.0663 31.7866 34.2863 31.7186 34.4383 31.5826C34.5903 31.4386 34.6663 31.2546 34.6663 31.0306C34.6663 30.8386 34.5983 30.6826 34.4623 30.5626C34.3343 30.4426 34.1703 30.3506 33.9703 30.2866C33.7783 30.2226 33.5023 30.1466 33.1423 30.0586C32.6463 29.9466 32.2423 29.8346 31.9303 29.7226C31.6263 29.6026 31.3623 29.4146 31.1383 29.1586C30.9223 28.9026 30.8143 28.5506 30.8143 28.1026C30.8143 27.5266 31.0343 27.0586 31.4743 26.6986C31.9143 26.3386 32.5223 26.1586 33.2983 26.1586ZM39.1905 24.0106V32.8906H37.4985V24.0106H39.1905ZM41.8611 26.2426L43.6731 30.7546L45.3531 26.2426H47.2131L43.1451 36.0586H41.2731L42.7731 32.6986L39.9771 26.2426H41.8611ZM51.9702 26.1466C52.7382 26.1466 53.3502 26.3986 53.8062 26.9026C54.2622 27.4066 54.4902 28.1146 54.4902 29.0266V32.8906H52.8102V29.2186C52.8102 28.6906 52.6742 28.2826 52.4022 27.9946C52.1302 27.6986 51.7582 27.5506 51.2862 27.5506C50.8062 27.5506 50.4222 27.7066 50.1342 28.0186C49.8462 28.3306 49.7022 28.7786 49.7022 29.3626V32.8906H48.0102V26.2426H49.7022V27.5746C49.8782 27.1266 50.1662 26.7786 50.5662 26.5306C50.9742 26.2746 51.4422 26.1466 51.9702 26.1466Z"
        fill="white" />
    <path
        d="M75.3002 6.20107C76.045 5.75822 76.9622 6.40763 76.7918 7.25722L73.847 21.9426C73.6703 22.8237 72.5114 23.0427 72.0254 22.2868L68.914 17.4484C68.7742 17.2309 68.5554 17.076 68.3038 17.0163L62.7067 15.6885C61.8323 15.481 61.654 14.3152 62.4264 13.8559L75.3002 6.20107Z"
        fill="#FF218B" />
</svg>