<svg width="68" height="42" viewBox="0 0 68 42" fill="none" xmlns="http://www.w3.org/2000/svg">
<rect x="17" y="0.109375" width="51" height="26" rx="13" fill="#E021FF"/>
<path d="M32.184 17.1094L30.204 13.8094H29.46V17.1094H27.768V8.63737H30.996C31.98 8.63737 32.728 8.87737 33.24 9.35737C33.76 9.83737 34.02 10.4694 34.02 11.2534C34.02 11.8934 33.84 12.4294 33.48 12.8614C33.128 13.2934 32.616 13.5814 31.944 13.7254L34.056 17.1094H32.184ZM29.46 12.6454H30.852C31.82 12.6454 32.304 12.2174 32.304 11.3614C32.304 10.9534 32.184 10.6374 31.944 10.4134C31.712 10.1814 31.348 10.0654 30.852 10.0654H29.46V12.6454ZM36.3025 10.4614L38.1145 14.9734L39.7945 10.4614H41.6545L37.5865 20.2774H35.7145L37.2145 16.9174L34.4185 10.4614H36.3025ZM45.0556 10.3774C45.6156 10.3774 46.0956 10.5094 46.4956 10.7734C46.8956 11.0374 47.1796 11.3934 47.3476 11.8414V10.4614H49.0276V17.1094H47.3476V15.7174C47.1796 16.1654 46.8956 16.5254 46.4956 16.7974C46.0956 17.0614 45.6156 17.1934 45.0556 17.1934C44.4956 17.1934 43.9916 17.0574 43.5436 16.7854C43.0956 16.5134 42.7436 16.1214 42.4876 15.6094C42.2396 15.0894 42.1156 14.4814 42.1156 13.7854C42.1156 13.0894 42.2396 12.4854 42.4876 11.9734C42.7436 11.4534 43.0956 11.0574 43.5436 10.7854C43.9916 10.5134 44.4956 10.3774 45.0556 10.3774ZM45.5836 11.8534C45.0556 11.8534 44.6316 12.0254 44.3116 12.3694C43.9916 12.7134 43.8316 13.1854 43.8316 13.7854C43.8316 14.3854 43.9916 14.8574 44.3116 15.2014C44.6316 15.5374 45.0556 15.7054 45.5836 15.7054C46.0956 15.7054 46.5156 15.5334 46.8436 15.1894C47.1796 14.8374 47.3476 14.3694 47.3476 13.7854C47.3476 13.1934 47.1796 12.7254 46.8436 12.3814C46.5156 12.0294 46.0956 11.8534 45.5836 11.8534ZM54.521 10.3654C55.289 10.3654 55.901 10.6174 56.357 11.1214C56.813 11.6254 57.041 12.3334 57.041 13.2454V17.1094H55.361V13.4374C55.361 12.9094 55.225 12.5014 54.953 12.2134C54.681 11.9174 54.309 11.7694 53.837 11.7694C53.357 11.7694 52.973 11.9254 52.685 12.2374C52.397 12.5494 52.253 12.9974 52.253 13.5814V17.1094H50.561V10.4614H52.253V11.7934C52.429 11.3454 52.717 10.9974 53.117 10.7494C53.525 10.4934 53.993 10.3654 54.521 10.3654Z" fill="white"/>
<path d="M7.65078 34.5755C6.83553 34.8691 6.05817 34.0575 6.38655 33.2557L12.0627 19.3952C12.4033 18.5635 13.5826 18.5683 13.9165 19.4026L16.0539 24.7432C16.15 24.9833 16.3354 25.1769 16.5712 25.2832L21.8149 27.6483C22.6341 28.0178 22.5881 29.1963 21.7426 29.5008L7.65078 34.5755Z" fill="#E021FF"/>
</svg>
