<svg width="72" height="42" viewBox="0 0 72 42" fill="none" xmlns="http://www.w3.org/2000/svg">
    <rect x="17" y="0.109367" width="55" height="26" rx="13" fill="#2C00D5" />
    <path
        d="M32.184 17.1094L30.204 13.8094H29.46V17.1094H27.768V8.63737H30.996C31.98 8.63737 32.728 8.87737 33.24 9.35737C33.76 9.83737 34.02 10.4694 34.02 11.2534C34.02 11.8934 33.84 12.4294 33.48 12.8614C33.128 13.2934 32.616 13.5814 31.944 13.7254L34.056 17.1094H32.184ZM29.46 12.6454H30.852C31.82 12.6454 32.304 12.2174 32.304 11.3614C32.304 10.9534 32.184 10.6374 31.944 10.4134C31.712 10.1814 31.348 10.0654 30.852 10.0654H29.46V12.6454ZM34.9705 8.55337C34.9705 8.28137 35.0665 8.06137 35.2585 7.89337C35.4505 7.71737 35.7025 7.62937 36.0145 7.62937C36.3265 7.62937 36.5785 7.71737 36.7705 7.89337C36.9625 8.06137 37.0585 8.28137 37.0585 8.55337C37.0585 8.81737 36.9625 9.03737 36.7705 9.21337C36.5785 9.38137 36.3265 9.46537 36.0145 9.46537C35.7025 9.46537 35.4505 9.38137 35.2585 9.21337C35.0665 9.03737 34.9705 8.81737 34.9705 8.55337ZM36.8545 10.4614V17.1094H35.1625V10.4614H36.8545ZM42.3452 10.3654C43.1132 10.3654 43.7252 10.6174 44.1812 11.1214C44.6372 11.6254 44.8652 12.3334 44.8652 13.2454V17.1094H43.1852V13.4374C43.1852 12.9094 43.0492 12.5014 42.7772 12.2134C42.5052 11.9174 42.1332 11.7694 41.6612 11.7694C41.1812 11.7694 40.7972 11.9254 40.5092 12.2374C40.2212 12.5494 40.0772 12.9974 40.0772 13.5814V17.1094H38.3852V10.4614H40.0772V11.7934C40.2532 11.3454 40.5412 10.9974 40.9412 10.7494C41.3492 10.4934 41.8172 10.3654 42.3452 10.3654ZM48.9579 10.3774C49.5179 10.3774 49.9939 10.5094 50.3859 10.7734C50.7859 11.0374 51.0739 11.3934 51.2499 11.8414V8.22937H52.9299V17.1094H51.2499V15.7174C51.0739 16.1654 50.7859 16.5254 50.3859 16.7974C49.9939 17.0614 49.5179 17.1934 48.9579 17.1934C48.3979 17.1934 47.8939 17.0574 47.4459 16.7854C46.9979 16.5134 46.6459 16.1214 46.3899 15.6094C46.1419 15.0894 46.0179 14.4814 46.0179 13.7854C46.0179 13.0894 46.1419 12.4854 46.3899 11.9734C46.6459 11.4534 46.9979 11.0574 47.4459 10.7854C47.8939 10.5134 48.3979 10.3774 48.9579 10.3774ZM49.4859 11.8534C48.9579 11.8534 48.5339 12.0254 48.2139 12.3694C47.8939 12.7134 47.7339 13.1854 47.7339 13.7854C47.7339 14.3854 47.8939 14.8574 48.2139 15.2014C48.5339 15.5374 48.9579 15.7054 49.4859 15.7054C49.9979 15.7054 50.4179 15.5334 50.7459 15.1894C51.0819 14.8374 51.2499 14.3694 51.2499 13.7854C51.2499 13.1934 51.0819 12.7254 50.7459 12.3814C50.4179 12.0294 49.9979 11.8534 49.4859 11.8534ZM57.0673 10.3774C57.6273 10.3774 58.1073 10.5094 58.5073 10.7734C58.9073 11.0374 59.1913 11.3934 59.3593 11.8414V10.4614H61.0393V17.1094H59.3593V15.7174C59.1913 16.1654 58.9073 16.5254 58.5073 16.7974C58.1073 17.0614 57.6273 17.1934 57.0673 17.1934C56.5073 17.1934 56.0033 17.0574 55.5553 16.7854C55.1073 16.5134 54.7553 16.1214 54.4993 15.6094C54.2513 15.0894 54.1273 14.4814 54.1273 13.7854C54.1273 13.0894 54.2513 12.4854 54.4993 11.9734C54.7553 11.4534 55.1073 11.0574 55.5553 10.7854C56.0033 10.5134 56.5073 10.3774 57.0673 10.3774ZM57.5953 11.8534C57.0673 11.8534 56.6433 12.0254 56.3233 12.3694C56.0033 12.7134 55.8433 13.1854 55.8433 13.7854C55.8433 14.3854 56.0033 14.8574 56.3233 15.2014C56.6433 15.5374 57.0673 15.7054 57.5953 15.7054C58.1073 15.7054 58.5273 15.5334 58.8553 15.1894C59.1913 14.8374 59.3593 14.3694 59.3593 13.7854C59.3593 13.1934 59.1913 12.7254 58.8553 12.3814C58.5273 12.0294 58.1073 11.8534 57.5953 11.8534Z"
        fill="white" />
    <path
        d="M7.65078 34.5755C6.83553 34.8691 6.05817 34.0575 6.38655 33.2556L12.0627 19.3952C12.4033 18.5635 13.5826 18.5683 13.9165 19.4026L16.0539 24.7432C16.15 24.9833 16.3354 25.1769 16.5712 25.2832L21.8149 27.6483C22.6341 28.0178 22.5881 29.1963 21.7426 29.5007L7.65078 34.5755Z"
        fill="#2C00D5" />
</svg>