<svg width="118" height="40" viewBox="0 0 118 40" fill="none" xmlns="http://www.w3.org/2000/svg">
<g clip-path="url(#clip0_0_399)">
<path d="M27.3149 21.2545C27.2666 16.193 31.45 13.7612 31.6381 13.6453C29.2835 10.2051 25.6261 9.7322 24.3233 9.67913C21.2111 9.36067 18.2485 11.5127 16.6659 11.5127C15.0833 11.5127 12.6466 9.72255 10.0652 9.77563C6.6683 9.82388 3.53682 11.7491 1.78531 14.7889C-1.737 20.8975 0.887845 29.9686 4.32814 34.9337C6.01209 37.3607 8.00968 40.0965 10.6442 39.9952C13.1822 39.8938 14.1375 38.3546 17.1967 38.3546C20.2558 38.3546 21.1194 39.9952 23.7974 39.9469C26.5236 39.8938 28.2509 37.4668 29.9204 35.0302C31.8408 32.2075 32.6369 29.4813 32.6852 29.3365C32.6225 29.3124 27.3728 27.3004 27.3149 21.2545Z" fill="#0A143A"/>
<path d="M22.2823 6.38842C23.6816 4.69481 24.6225 2.34499 24.3667 0C22.3547 0.0820265 19.918 1.34138 18.4753 3.03498C17.1822 4.53076 16.0483 6.92401 16.3571 9.22075C18.5911 9.39445 20.8878 8.0772 22.2823 6.38842ZM44.9602 26.2292L42.6442 33.2497H39.6671L47.2473 10.9385H50.7214L58.3306 33.2497H55.2521L52.8685 26.2292H44.9602ZM52.2751 23.9759L50.0941 17.5537C49.5971 16.0965 49.269 14.7744 48.9361 13.4813H48.8734C48.5404 14.8034 48.1786 16.1592 47.7491 17.5199L45.5682 23.9711L52.2751 23.9759ZM60.5887 22.456C60.5887 20.4053 60.526 18.7455 60.4536 17.2256H63.0688L63.2039 19.9759H63.2666C64.4584 18.0217 66.345 16.8637 68.9602 16.8637C72.8348 16.8637 75.7443 20.1399 75.7443 25.0084C75.7443 30.7696 72.2365 33.6116 68.4632 33.6116C66.345 33.6116 64.4922 32.6852 63.532 31.0977H63.4693V39.8022H60.5887V22.456ZM63.4644 26.7262C63.4644 27.1604 63.5272 27.5513 63.5995 27.918C64.1303 29.9349 65.8818 31.3293 67.9711 31.3293C71.0495 31.3293 72.8396 28.8154 72.8396 25.1387C72.8396 21.9252 71.1508 19.1846 68.0724 19.1846C66.0893 19.1846 64.2365 20.608 63.6671 22.7937C63.5658 23.1556 63.4693 23.5899 63.4693 23.9855L63.4644 26.7262ZM78.7552 22.456C78.7552 20.4053 78.6924 18.7455 78.6201 17.2256H81.2353L81.3704 19.9759H81.4331C82.6249 18.0217 84.5115 16.8637 87.1267 16.8637C91.0012 16.8637 93.9108 20.1399 93.9108 25.0084C93.9108 30.7696 90.4029 33.6116 86.6297 33.6116C84.5115 33.6116 82.6587 32.6852 81.6985 31.0977H81.6357V39.8022H78.7552V22.456ZM81.6357 26.7262C81.6357 27.1604 81.6985 27.5513 81.7708 27.918C82.3016 29.9349 84.0531 31.3293 86.1424 31.3293C89.2208 31.3293 91.0109 28.8154 91.0109 25.1387C91.0109 21.9252 89.3221 19.1846 86.2437 19.1846C84.2606 19.1846 82.4078 20.608 81.8384 22.7937C81.7371 23.1556 81.6406 23.5899 81.6406 23.9855L81.6357 26.7262ZM96.9265 9.74668H99.8408V33.2449H96.9265V9.74668ZM105.698 25.766C105.761 29.7033 108.28 31.3293 111.189 31.3293C113.274 31.3293 114.533 30.9674 115.624 30.5042L116.121 32.5887C115.098 33.0519 113.341 33.5826 110.794 33.5826C105.863 33.5826 102.914 30.3402 102.914 25.5054C102.914 20.6707 105.761 16.8637 110.427 16.8637C115.657 16.8637 117.047 21.462 117.047 24.4101C117.047 25.0084 116.984 25.4668 116.946 25.766H105.698ZM114.239 23.6815C114.273 21.8287 113.477 18.9481 110.2 18.9481C107.252 18.9481 105.964 21.6647 105.732 23.6815H114.239Z" fill="#0A143A"/>
</g>
<defs>
<clipPath id="clip0_0_399">
<rect width="116.936" height="40" fill="white" transform="translate(0.115845)"/>
</clipPath>
</defs>
</svg>
