<svg width="225" height="47" viewBox="0 0 225 47" fill="none" xmlns="http://www.w3.org/2000/svg">
    <path
        d="M69.91 20.22C69.91 21.44 69.63 22.56 69.07 23.58C68.51 24.58 67.65 25.39 66.49 26.01C65.33 26.63 63.89 26.94 62.17 26.94H58.99V34.5H53.86V13.44H62.17C63.85 13.44 65.27 13.73 66.43 14.31C67.59 14.89 68.46 15.69 69.04 16.71C69.62 17.73 69.91 18.9 69.91 20.22ZM61.78 22.86C62.76 22.86 63.49 22.63 63.97 22.17C64.45 21.71 64.69 21.06 64.69 20.22C64.69 19.38 64.45 18.73 63.97 18.27C63.49 17.81 62.76 17.58 61.78 17.58H58.99V22.86H61.78ZM80.2007 34.74C78.5607 34.74 77.0807 34.39 75.7607 33.69C74.4607 32.99 73.4307 31.99 72.6707 30.69C71.9307 29.39 71.5607 27.87 71.5607 26.13C71.5607 24.41 71.9407 22.9 72.7007 21.6C73.4607 20.28 74.5007 19.27 75.8207 18.57C77.1407 17.87 78.6207 17.52 80.2607 17.52C81.9007 17.52 83.3807 17.87 84.7007 18.57C86.0207 19.27 87.0607 20.28 87.8207 21.6C88.5807 22.9 88.9607 24.41 88.9607 26.13C88.9607 27.85 88.5707 29.37 87.7907 30.69C87.0307 31.99 85.9807 32.99 84.6407 33.69C83.3207 34.39 81.8407 34.74 80.2007 34.74ZM80.2007 30.3C81.1807 30.3 82.0107 29.94 82.6907 29.22C83.3907 28.5 83.7407 27.47 83.7407 26.13C83.7407 24.79 83.4007 23.76 82.7207 23.04C82.0607 22.32 81.2407 21.96 80.2607 21.96C79.2607 21.96 78.4307 22.32 77.7707 23.04C77.1107 23.74 76.7807 24.77 76.7807 26.13C76.7807 27.47 77.1007 28.5 77.7407 29.22C78.4007 29.94 79.2207 30.3 80.2007 30.3ZM115.712 17.76L111.182 34.5H105.512L102.872 23.64L100.142 34.5H94.5023L89.9423 17.76H95.0723L97.4423 29.73L100.262 17.76H105.692L108.542 29.67L110.882 17.76H115.712ZM133.449 25.86C133.449 26.34 133.419 26.84 133.359 27.36H121.749C121.829 28.4 122.159 29.2 122.739 29.76C123.339 30.3 124.069 30.57 124.929 30.57C126.209 30.57 127.099 30.03 127.599 28.95H133.059C132.779 30.05 132.269 31.04 131.529 31.92C130.809 32.8 129.899 33.49 128.799 33.99C127.699 34.49 126.469 34.74 125.109 34.74C123.469 34.74 122.009 34.39 120.729 33.69C119.449 32.99 118.449 31.99 117.729 30.69C117.009 29.39 116.649 27.87 116.649 26.13C116.649 24.39 116.999 22.87 117.699 21.57C118.419 20.27 119.419 19.27 120.699 18.57C121.979 17.87 123.449 17.52 125.109 17.52C126.729 17.52 128.169 17.86 129.429 18.54C130.689 19.22 131.669 20.19 132.369 21.45C133.089 22.71 133.449 24.18 133.449 25.86ZM128.199 24.51C128.199 23.63 127.899 22.93 127.299 22.41C126.699 21.89 125.949 21.63 125.049 21.63C124.189 21.63 123.459 21.88 122.859 22.38C122.279 22.88 121.919 23.59 121.779 24.51H128.199ZM141.285 20.55C141.885 19.63 142.635 18.91 143.535 18.39C144.435 17.85 145.435 17.58 146.535 17.58V23.01H145.125C143.845 23.01 142.885 23.29 142.245 23.85C141.605 24.39 141.285 25.35 141.285 26.73V34.5H136.155V17.76H141.285V20.55ZM156.607 34.71C155.067 34.71 153.687 34.46 152.467 33.96C151.247 33.46 150.267 32.72 149.527 31.74C148.807 30.76 148.427 29.58 148.387 28.2H153.847C153.927 28.98 154.197 29.58 154.657 30C155.117 30.4 155.717 30.6 156.457 30.6C157.217 30.6 157.817 30.43 158.257 30.09C158.697 29.73 158.917 29.24 158.917 28.62C158.917 28.1 158.737 27.67 158.377 27.33C158.037 26.99 157.607 26.71 157.087 26.49C156.587 26.27 155.867 26.02 154.927 25.74C153.567 25.32 152.457 24.9 151.597 24.48C150.737 24.06 149.997 23.44 149.377 22.62C148.757 21.8 148.447 20.73 148.447 19.41C148.447 17.45 149.157 15.92 150.577 14.82C151.997 13.7 153.847 13.14 156.127 13.14C158.447 13.14 160.317 13.7 161.737 14.82C163.157 15.92 163.917 17.46 164.017 19.44H158.467C158.427 18.76 158.177 18.23 157.717 17.85C157.257 17.45 156.667 17.25 155.947 17.25C155.327 17.25 154.827 17.42 154.447 17.76C154.067 18.08 153.877 18.55 153.877 19.17C153.877 19.85 154.197 20.38 154.837 20.76C155.477 21.14 156.477 21.55 157.837 21.99C159.197 22.45 160.297 22.89 161.137 23.31C161.997 23.73 162.737 24.34 163.357 25.14C163.977 25.94 164.287 26.97 164.287 28.23C164.287 29.43 163.977 30.52 163.357 31.5C162.757 32.48 161.877 33.26 160.717 33.84C159.557 34.42 158.187 34.71 156.607 34.71ZM166.424 26.1C166.424 24.38 166.744 22.87 167.384 21.57C168.044 20.27 168.934 19.27 170.054 18.57C171.174 17.87 172.424 17.52 173.804 17.52C174.984 17.52 176.014 17.76 176.894 18.24C177.794 18.72 178.484 19.35 178.964 20.13V17.76H184.094V34.5H178.964V32.13C178.464 32.91 177.764 33.54 176.864 34.02C175.984 34.5 174.954 34.74 173.774 34.74C172.414 34.74 171.174 34.39 170.054 33.69C168.934 32.97 168.044 31.96 167.384 30.66C166.744 29.34 166.424 27.82 166.424 26.1ZM178.964 26.13C178.964 24.85 178.604 23.84 177.884 23.1C177.184 22.36 176.324 21.99 175.304 21.99C174.284 21.99 173.414 22.36 172.694 23.1C171.994 23.82 171.644 24.82 171.644 26.1C171.644 27.38 171.994 28.4 172.694 29.16C173.414 29.9 174.284 30.27 175.304 30.27C176.324 30.27 177.184 29.9 177.884 29.16C178.604 28.42 178.964 27.41 178.964 26.13ZM186.785 26.1C186.785 24.38 187.105 22.87 187.745 21.57C188.405 20.27 189.295 19.27 190.415 18.57C191.535 17.87 192.785 17.52 194.165 17.52C195.345 17.52 196.375 17.76 197.255 18.24C198.155 18.72 198.845 19.35 199.325 20.13V17.76H204.455V34.5H199.325V32.13C198.825 32.91 198.125 33.54 197.225 34.02C196.345 34.5 195.315 34.74 194.135 34.74C192.775 34.74 191.535 34.39 190.415 33.69C189.295 32.97 188.405 31.96 187.745 30.66C187.105 29.34 186.785 27.82 186.785 26.1ZM199.325 26.13C199.325 24.85 198.965 23.84 198.245 23.1C197.545 22.36 196.685 21.99 195.665 21.99C194.645 21.99 193.775 22.36 193.055 23.1C192.355 23.82 192.005 24.82 192.005 26.1C192.005 27.38 192.355 28.4 193.055 29.16C193.775 29.9 194.645 30.27 195.665 30.27C196.685 30.27 197.545 29.9 198.245 29.16C198.965 28.42 199.325 27.41 199.325 26.13ZM215.787 34.71C214.247 34.71 212.867 34.46 211.647 33.96C210.427 33.46 209.447 32.72 208.707 31.74C207.987 30.76 207.607 29.58 207.567 28.2H213.027C213.107 28.98 213.377 29.58 213.837 30C214.297 30.4 214.897 30.6 215.637 30.6C216.397 30.6 216.997 30.43 217.437 30.09C217.877 29.73 218.097 29.24 218.097 28.62C218.097 28.1 217.917 27.67 217.557 27.33C217.217 26.99 216.787 26.71 216.267 26.49C215.767 26.27 215.047 26.02 214.107 25.74C212.747 25.32 211.637 24.9 210.777 24.48C209.917 24.06 209.177 23.44 208.557 22.62C207.937 21.8 207.627 20.73 207.627 19.41C207.627 17.45 208.337 15.92 209.757 14.82C211.177 13.7 213.027 13.14 215.307 13.14C217.627 13.14 219.497 13.7 220.917 14.82C222.337 15.92 223.097 17.46 223.197 19.44H217.647C217.607 18.76 217.357 18.23 216.897 17.85C216.437 17.45 215.847 17.25 215.127 17.25C214.507 17.25 214.007 17.42 213.627 17.76C213.247 18.08 213.057 18.55 213.057 19.17C213.057 19.85 213.377 20.38 214.017 20.76C214.657 21.14 215.657 21.55 217.017 21.99C218.377 22.45 219.477 22.89 220.317 23.31C221.177 23.73 221.917 24.34 222.537 25.14C223.157 25.94 223.467 26.97 223.467 28.23C223.467 29.43 223.157 30.52 222.537 31.5C221.937 32.48 221.057 33.26 219.897 33.84C218.737 34.42 217.367 34.71 215.787 34.71Z"
        fill="#0A143A" />
    <circle cx="20" cy="24.5" r="20" fill="#2C00D5" />
    <path
        d="M32.6667 31.8333C40.7668 31.8333 47.3333 25.2668 47.3333 17.1667C47.3333 9.06649 40.7668 2.5 32.6667 2.5C24.5665 2.5 18 9.06649 18 17.1667C18 25.2668 24.5665 31.8333 32.6667 31.8333Z"
        fill="#9CCEA6" stroke="white" stroke-width="4" />
</svg>