<svg width="176" height="38" viewBox="0 0 176 38" fill="none" xmlns="http://www.w3.org/2000/svg">
<g clip-path="url(#clip0_0_391)">
<path fill-rule="evenodd" clip-rule="evenodd" d="M94.0019 26.6388C92.104 28.5672 89.8338 29.5364 87.2026 29.5364C85.0747 29.5364 83.2663 29.102 81.4209 28.0285V23.6081C82.9053 24.6162 84.7708 25.5762 86.6101 25.5762C90.4481 25.5762 92.7327 22.9314 92.7327 19.1833C92.7327 15.4322 90.3699 12.7088 86.5302 12.7088C84.8153 12.7088 83.4253 13.3262 82.3395 14.5634C81.1756 15.9037 80.5739 17.8195 80.5739 20.3525V37.8074H80.2849C78.1693 37.8074 76.4552 36.0912 76.4552 33.9734V19.6972C76.4552 13.6392 80.154 8.74774 86.5114 8.74774C89.6505 8.74774 92.2001 9.82261 94.1333 11.9819C95.9508 13.9994 96.8514 16.5556 96.8514 19.6317C96.8514 22.3691 95.901 24.7091 94.0019 26.6388ZM138.595 26.4908C136.704 28.5231 134.272 29.5364 131.322 29.5364C128.208 29.5364 125.671 28.4616 123.74 26.3027C121.924 24.2603 121.023 21.702 121.023 18.6538C121.023 13.2576 125.182 8.74774 130.656 8.74774C132.768 8.74774 134.601 9.19437 136.453 10.2112V14.6778C134.968 13.6693 133.103 12.7093 131.264 12.7093C127.426 12.7093 125.141 15.3537 125.141 19.103C125.141 22.8013 127.559 25.5766 131.342 25.5766C133.056 25.5766 134.467 24.9335 135.596 23.6382C136.717 22.3516 137.3 20.4608 137.3 17.9207V4.02656C137.3 1.90827 139.015 0.192505 141.129 0.192505H141.419V18.5721C141.419 21.8089 140.483 24.4585 138.595 26.4908ZM150.225 6.78619C149.793 7.27079 149.173 7.49388 148.418 7.49388C147.003 7.49388 145.992 6.45002 145.992 5.0451C145.992 3.60744 146.985 2.63692 148.417 2.63692C149.796 2.63692 150.843 3.66027 150.843 5.0451C150.843 5.73053 150.642 6.31774 150.225 6.78619ZM171.152 17.9203C171.152 16.2945 170.538 15.0074 169.304 14.0326C168.192 13.155 166.803 12.7088 165.114 12.7088C161.386 12.7088 158.993 15.6265 158.993 19.2244C158.993 22.6865 161.53 25.5762 165.075 25.5762C167.54 25.5762 168.859 24.1342 170.265 22.3376V27.5172C169.549 28.0547 168.725 28.6406 167.884 28.9846C166.996 29.3557 165.936 29.5364 164.712 29.5364C158.783 29.5364 154.874 24.6205 154.874 18.9393C154.874 16.0221 155.779 13.6104 157.601 11.7296C159.534 9.7366 162.07 8.74774 165.175 8.74774C171.061 8.74774 175.271 12.1317 175.271 18.246V29.1291H174.983C172.867 29.1291 171.152 27.4125 171.152 25.2942V17.9203ZM114.772 16.752C114.251 15.1406 113.599 14.3473 112.098 13.5082C108.529 11.5117 105.016 13.2113 103.382 16.7367L114.772 16.752ZM111.629 29.4757C108.998 30.0354 106.417 29.6037 103.899 28.1944C101.442 26.8209 99.7966 24.7781 98.9719 22.0787C97.305 16.6193 100.72 10.5355 106.213 9.06252C108.936 8.33256 111.547 8.66305 114.027 10.0505C118.147 12.3565 119.648 15.923 119.386 20.5184L102.793 20.4852C103.037 22.3595 104.198 23.8259 105.829 24.738C107.483 25.6635 109.003 25.8844 110.413 25.4465C111.981 24.9541 113.251 23.674 114.285 22.4821L117.666 24.9493C116.287 27.4203 114.409 28.8829 111.629 29.4757ZM146.358 9.15595H150.476V29.1287H150.187C148.073 29.1287 146.358 27.412 146.358 25.2937L146.358 9.15595ZM6.66647 29.1287C2.63814 29.1287 0.639038 26.3856 0.639038 22.5537V8.01996C0.639038 5.90255 2.35393 4.18547 4.46916 4.18547H4.75818V9.15638H11.7168V13.117H4.75774V23.0135C4.75774 24.6965 5.50822 25.1689 7.11397 25.1689H11.7168V29.1295L6.66647 29.1287ZM30.5854 26.6039C28.551 28.5572 26.1052 29.536 23.264 29.536C20.4493 29.536 18.0176 28.5563 15.9831 26.6039C13.9417 24.6437 12.924 22.1486 12.924 19.1423C12.924 13.2764 17.3972 8.74818 23.264 8.74818C26.0799 8.74818 28.5182 9.73485 30.5653 11.7017C32.6195 13.6741 33.6459 16.1618 33.6459 19.1423C33.6459 22.1486 32.6269 24.6432 30.5854 26.6039ZM49.8417 13.9618C49.2375 14.9764 48.769 15.7038 48.4394 16.1434C48.0762 16.6215 47.7173 17.0035 47.3619 17.2672C50.2241 18.1927 51.2903 20.1783 51.2903 23.1361V29.1287H51.0013C48.886 29.1287 47.1711 27.412 47.1711 25.2937V23.5426C47.1711 21.6273 46.3133 20.3281 44.2866 20.3281H40.5465V29.1287H40.257C38.1422 29.1287 36.4286 27.412 36.4286 25.2937V4.02656C36.4286 1.90827 38.1422 0.192505 40.2574 0.192505H40.5465V16.3272H41.7636C43.1013 16.3272 43.9802 15.8688 44.4849 15.0022L47.9443 9.15682L52.6376 9.15246L49.8417 13.9618ZM71.1023 26.6043C69.067 28.5576 66.6213 29.5364 63.7804 29.5364C60.9662 29.5364 58.5345 28.5567 56.4991 26.6043C54.4577 24.6441 53.44 22.149 53.44 19.1427C53.44 13.2768 57.9137 8.74862 63.7804 8.74862C66.5964 8.74862 69.0342 9.73529 71.0818 11.7021C73.1364 13.6746 74.1619 16.1622 74.1619 19.1427C74.1619 22.149 73.1438 24.6437 71.1023 26.6043ZM68.1292 14.4945C66.9941 13.3056 65.5525 12.7088 63.7804 12.7088C59.9905 12.7088 57.7211 15.4755 57.7211 19.1427C57.7211 22.7589 60.0442 25.5762 63.7804 25.5762C67.5176 25.5762 69.8397 22.7589 69.8397 19.1427C69.8397 17.2227 69.2634 15.682 68.1296 14.4945H68.1292ZM27.6132 14.4945C26.4781 13.3056 25.0365 12.7088 23.2648 12.7088C19.4744 12.7088 17.2055 15.4755 17.2055 19.1427C17.2055 22.7589 19.5281 25.5762 23.2644 25.5762C27.0015 25.5762 29.3233 22.7589 29.3233 19.1427C29.3233 17.2227 28.7479 15.682 27.6132 14.4945Z" fill="#0A143A"/>
</g>
<defs>
<clipPath id="clip0_0_391">
<rect width="174.632" height="38" fill="white" transform="translate(0.639038)"/>
</clipPath>
</defs>
</svg>
